<mxfile host="app.diagrams.net" agent="Mozilla/5.0 (Windows NT 10.0; Win64; x64) AppleWebKit/537.36 (KHTML, like Gecko) Chrome/141.0.0.0 Safari/537.36" version="28.2.8">
  <diagram name="Page-1" id="0hOQchpUIGeYZYNynJ9E">
    <mxGraphModel dx="1678" dy="935" grid="1" gridSize="10" guides="1" tooltips="1" connect="1" arrows="1" fold="1" page="1" pageScale="1" pageWidth="850" pageHeight="1100" math="0" shadow="0">
      <root>
        <mxCell id="0" />
        <mxCell id="1" parent="0" />
        <mxCell id="VLJKYC3LTIpCLGKi5_63-6" value="/*&#xa; * Chad Galloway&#xa; * CST - 250 Programming in C# II&#xa; * 10/26/2025&#xa; * Vehicle Class Library&#xa; * Activity 1&#xa; * References:&#xa; */" style="text;whiteSpace=wrap;html=1;" vertex="1" parent="1">
          <mxGeometry x="10" y="10" width="210" height="130" as="geometry" />
        </mxCell>
        <mxCell id="VLJKYC3LTIpCLGKi5_63-7" value="StoreDAO" style="swimlane;fontStyle=1;align=center;verticalAlign=top;childLayout=stackLayout;horizontal=1;startSize=26;horizontalStack=0;resizeParent=1;resizeParentMax=0;resizeLast=0;collapsible=1;marginBottom=0;whiteSpace=wrap;html=1;" vertex="1" parent="1">
          <mxGeometry x="145" y="170" width="250" height="290" as="geometry" />
        </mxCell>
        <mxCell id="VLJKYC3LTIpCLGKi5_63-8" value="- _inventory: List&amp;lt;VehicleModel&amp;gt;&lt;div&gt;- _shoppingCart: List&amp;lt;VehicleMadel&amp;gt;&lt;/div&gt;&lt;div&gt;- _fileDirectory: string&lt;/div&gt;&lt;div&gt;- _textFile: string&lt;/div&gt;&lt;div&gt;- _filePath: string&lt;/div&gt;" style="text;strokeColor=none;fillColor=none;align=left;verticalAlign=top;spacingLeft=4;spacingRight=4;overflow=hidden;rotatable=0;points=[[0,0.5],[1,0.5]];portConstraint=eastwest;whiteSpace=wrap;html=1;" vertex="1" parent="VLJKYC3LTIpCLGKi5_63-7">
          <mxGeometry y="26" width="250" height="84" as="geometry" />
        </mxCell>
        <mxCell id="VLJKYC3LTIpCLGKi5_63-9" value="" style="line;strokeWidth=1;fillColor=none;align=left;verticalAlign=middle;spacingTop=-1;spacingLeft=3;spacingRight=3;rotatable=0;labelPosition=right;points=[];portConstraint=eastwest;strokeColor=inherit;" vertex="1" parent="VLJKYC3LTIpCLGKi5_63-7">
          <mxGeometry y="110" width="250" height="8" as="geometry" />
        </mxCell>
        <mxCell id="VLJKYC3LTIpCLGKi5_63-10" value="+ StoreDAO()&lt;div&gt;+ GetInvnetory(): List&amp;lt;InventoryModel&amp;gt;&lt;/div&gt;&lt;div&gt;+ GetShoppingCart(): List&amp;lt;InventoryModel&amp;gt;&lt;/div&gt;&lt;div&gt;+ AddVehicleToInvnetory(VehicleModel): int&lt;/div&gt;&lt;div&gt;+ AddVehicleToCart(int): int&lt;/div&gt;&lt;div&gt;+ WriteInventory(): bool&lt;/div&gt;&lt;div&gt;+ ReadInventory(): List&amp;lt;InventoryModel&amp;gt;&lt;/div&gt;&lt;div&gt;+ Checkout(): decimal&lt;/div&gt;&lt;div&gt;- ParseInteger(string): int&lt;/div&gt;&lt;div&gt;- ParseDecimal(string): decimal&lt;/div&gt;&lt;div&gt;- ParseBoolean(string): bool&lt;/div&gt;" style="text;strokeColor=none;fillColor=none;align=left;verticalAlign=top;spacingLeft=4;spacingRight=4;overflow=hidden;rotatable=0;points=[[0,0.5],[1,0.5]];portConstraint=eastwest;whiteSpace=wrap;html=1;" vertex="1" parent="VLJKYC3LTIpCLGKi5_63-7">
          <mxGeometry y="118" width="250" height="172" as="geometry" />
        </mxCell>
        <mxCell id="VLJKYC3LTIpCLGKi5_63-15" value="Program" style="swimlane;fontStyle=0;childLayout=stackLayout;horizontal=1;startSize=26;fillColor=none;horizontalStack=0;resizeParent=1;resizeParentMax=0;resizeLast=0;collapsible=1;marginBottom=0;whiteSpace=wrap;html=1;" vertex="1" parent="1">
          <mxGeometry x="260" y="30" width="140" height="70" as="geometry" />
        </mxCell>
        <mxCell id="VLJKYC3LTIpCLGKi5_63-16" value="&lt;u&gt;+ ControlLoop(): void&lt;/u&gt;&lt;div&gt;&lt;u&gt;+ ReadChoice(): int&lt;/u&gt;&lt;/div&gt;" style="text;strokeColor=none;fillColor=none;align=left;verticalAlign=top;spacingLeft=4;spacingRight=4;overflow=hidden;rotatable=0;points=[[0,0.5],[1,0.5]];portConstraint=eastwest;whiteSpace=wrap;html=1;" vertex="1" parent="VLJKYC3LTIpCLGKi5_63-15">
          <mxGeometry y="26" width="140" height="44" as="geometry" />
        </mxCell>
        <mxCell id="VLJKYC3LTIpCLGKi5_63-19" value="StoreLogic" style="swimlane;fontStyle=1;align=center;verticalAlign=top;childLayout=stackLayout;horizontal=1;startSize=26;horizontalStack=0;resizeParent=1;resizeParentMax=0;resizeLast=0;collapsible=1;marginBottom=0;whiteSpace=wrap;html=1;" vertex="1" parent="1">
          <mxGeometry x="530" y="30" width="260" height="190" as="geometry" />
        </mxCell>
        <mxCell id="VLJKYC3LTIpCLGKi5_63-20" value="- _storeDAO: StoreDAO" style="text;strokeColor=none;fillColor=none;align=left;verticalAlign=top;spacingLeft=4;spacingRight=4;overflow=hidden;rotatable=0;points=[[0,0.5],[1,0.5]];portConstraint=eastwest;whiteSpace=wrap;html=1;" vertex="1" parent="VLJKYC3LTIpCLGKi5_63-19">
          <mxGeometry y="26" width="260" height="26" as="geometry" />
        </mxCell>
        <mxCell id="VLJKYC3LTIpCLGKi5_63-21" value="" style="line;strokeWidth=1;fillColor=none;align=left;verticalAlign=middle;spacingTop=-1;spacingLeft=3;spacingRight=3;rotatable=0;labelPosition=right;points=[];portConstraint=eastwest;strokeColor=inherit;" vertex="1" parent="VLJKYC3LTIpCLGKi5_63-19">
          <mxGeometry y="52" width="260" height="8" as="geometry" />
        </mxCell>
        <mxCell id="VLJKYC3LTIpCLGKi5_63-22" value="&lt;div&gt;+ StoreLogic()&lt;/div&gt;&lt;div&gt;+ GetInvnetory(): List&amp;lt;InventoryModel&amp;gt;&lt;/div&gt;&lt;div&gt;+ GetShoppingCart(): List&amp;lt;InventoryModel&amp;gt;&lt;/div&gt;&lt;div&gt;+ AddVehicleToInvnetory(VehicleModel): int&lt;/div&gt;&lt;div&gt;+ AddVehicleToCart(int): int&lt;/div&gt;&lt;div&gt;+ WriteInventory(): void&lt;/div&gt;&lt;div&gt;+ ReadInventory(): List&amp;lt;InventoryModel&amp;gt;&lt;/div&gt;&lt;div&gt;+ Checkout(): decimal&lt;/div&gt;" style="text;strokeColor=none;fillColor=none;align=left;verticalAlign=top;spacingLeft=4;spacingRight=4;overflow=hidden;rotatable=0;points=[[0,0.5],[1,0.5]];portConstraint=eastwest;whiteSpace=wrap;html=1;" vertex="1" parent="VLJKYC3LTIpCLGKi5_63-19">
          <mxGeometry y="60" width="260" height="130" as="geometry" />
        </mxCell>
        <mxCell id="VLJKYC3LTIpCLGKi5_63-47" value="" style="edgeStyle=none;curved=1;rounded=0;orthogonalLoop=1;jettySize=auto;html=1;fontSize=12;startSize=8;endSize=8;entryX=1;entryY=0.5;entryDx=0;entryDy=0;" edge="1" parent="1" source="VLJKYC3LTIpCLGKi5_63-23" target="VLJKYC3LTIpCLGKi5_63-8">
          <mxGeometry relative="1" as="geometry" />
        </mxCell>
        <mxCell id="VLJKYC3LTIpCLGKi5_63-23" value="VehicleModel" style="swimlane;fontStyle=1;align=center;verticalAlign=top;childLayout=stackLayout;horizontal=1;startSize=26;horizontalStack=0;resizeParent=1;resizeParentMax=0;resizeLast=0;collapsible=1;marginBottom=0;whiteSpace=wrap;html=1;" vertex="1" parent="1">
          <mxGeometry x="450" y="322" width="370" height="228" as="geometry" />
        </mxCell>
        <mxCell id="VLJKYC3LTIpCLGKi5_63-24" value="+ Id: int &amp;lt;&amp;lt;get, set&amp;gt;&amp;gt;&lt;div&gt;+ Make: string &amp;lt;&amp;lt;get, set&amp;gt;&amp;gt;&lt;/div&gt;&lt;div&gt;+Model: string&lt;span style=&quot;background-color: transparent; color: light-dark(rgb(0, 0, 0), rgb(255, 255, 255));&quot;&gt;&amp;nbsp;&lt;/span&gt;&lt;span style=&quot;background-color: transparent; color: light-dark(rgb(0, 0, 0), rgb(255, 255, 255));&quot;&gt;&amp;lt;&amp;lt;get, set&amp;gt;&amp;gt;&lt;/span&gt;&lt;/div&gt;&lt;div&gt;&lt;span style=&quot;background-color: transparent; color: light-dark(rgb(0, 0, 0), rgb(255, 255, 255));&quot;&gt;+ Color: string&lt;/span&gt;&lt;span style=&quot;background-color: transparent; color: light-dark(rgb(0, 0, 0), rgb(255, 255, 255));&quot;&gt;&amp;nbsp;&lt;/span&gt;&lt;span style=&quot;background-color: transparent; color: light-dark(rgb(0, 0, 0), rgb(255, 255, 255));&quot;&gt;&amp;lt;&amp;lt;get, set&amp;gt;&amp;gt;&lt;/span&gt;&lt;/div&gt;&lt;div&gt;&lt;span style=&quot;background-color: transparent; color: light-dark(rgb(0, 0, 0), rgb(255, 255, 255));&quot;&gt;+ Year: int&amp;nbsp;&lt;/span&gt;&lt;span style=&quot;background-color: transparent; color: light-dark(rgb(0, 0, 0), rgb(255, 255, 255));&quot;&gt;&amp;nbsp;&lt;/span&gt;&lt;span style=&quot;background-color: transparent; color: light-dark(rgb(0, 0, 0), rgb(255, 255, 255));&quot;&gt;&amp;lt;&amp;lt;get, set&amp;gt;&amp;gt;&lt;/span&gt;&lt;/div&gt;&lt;div&gt;&lt;span style=&quot;background-color: transparent; color: light-dark(rgb(0, 0, 0), rgb(255, 255, 255));&quot;&gt;+ Price: decimal&amp;nbsp;&lt;/span&gt;&lt;span style=&quot;background-color: transparent; color: light-dark(rgb(0, 0, 0), rgb(255, 255, 255));&quot;&gt;&amp;nbsp;&lt;/span&gt;&lt;span style=&quot;background-color: transparent; color: light-dark(rgb(0, 0, 0), rgb(255, 255, 255));&quot;&gt;&amp;lt;&amp;lt;get, set&amp;gt;&amp;gt;&lt;/span&gt;&lt;/div&gt;&lt;div&gt;&lt;span style=&quot;background-color: transparent; color: light-dark(rgb(0, 0, 0), rgb(255, 255, 255));&quot;&gt;+ NumWheels: int&lt;/span&gt;&lt;span style=&quot;background-color: transparent; color: light-dark(rgb(0, 0, 0), rgb(255, 255, 255));&quot;&gt;&amp;nbsp;&lt;/span&gt;&lt;span style=&quot;background-color: transparent; color: light-dark(rgb(0, 0, 0), rgb(255, 255, 255));&quot;&gt;&amp;lt;&amp;lt;get, set&amp;gt;&amp;gt;&lt;/span&gt;&lt;/div&gt;&lt;div&gt;&lt;span style=&quot;background-color: transparent; color: light-dark(rgb(0, 0, 0), rgb(255, 255, 255));&quot;&gt;+ EngineSize: decimal&lt;/span&gt;&lt;span style=&quot;background-color: transparent; color: light-dark(rgb(0, 0, 0), rgb(255, 255, 255));&quot;&gt;&amp;nbsp;&lt;/span&gt;&lt;span style=&quot;background-color: transparent; color: light-dark(rgb(0, 0, 0), rgb(255, 255, 255));&quot;&gt;&amp;lt;&amp;lt;get, set&amp;gt;&amp;gt;&lt;/span&gt;&lt;/div&gt;" style="text;strokeColor=none;fillColor=none;align=left;verticalAlign=top;spacingLeft=4;spacingRight=4;overflow=hidden;rotatable=0;points=[[0,0.5],[1,0.5]];portConstraint=eastwest;whiteSpace=wrap;html=1;" vertex="1" parent="VLJKYC3LTIpCLGKi5_63-23">
          <mxGeometry y="26" width="370" height="134" as="geometry" />
        </mxCell>
        <mxCell id="VLJKYC3LTIpCLGKi5_63-25" value="" style="line;strokeWidth=1;fillColor=none;align=left;verticalAlign=middle;spacingTop=-1;spacingLeft=3;spacingRight=3;rotatable=0;labelPosition=right;points=[];portConstraint=eastwest;strokeColor=inherit;" vertex="1" parent="VLJKYC3LTIpCLGKi5_63-23">
          <mxGeometry y="160" width="370" height="8" as="geometry" />
        </mxCell>
        <mxCell id="VLJKYC3LTIpCLGKi5_63-26" value="+ VehicleModel()&lt;div&gt;+ VehiccleModel(int, string,string,string,int,decimal,int,decimal)&lt;/div&gt;&lt;div&gt;+ ToString(): string &amp;lt;&amp;lt;override&amp;gt;&amp;gt;&lt;/div&gt;" style="text;strokeColor=none;fillColor=none;align=left;verticalAlign=top;spacingLeft=4;spacingRight=4;overflow=hidden;rotatable=0;points=[[0,0.5],[1,0.5]];portConstraint=eastwest;whiteSpace=wrap;html=1;" vertex="1" parent="VLJKYC3LTIpCLGKi5_63-23">
          <mxGeometry y="168" width="370" height="60" as="geometry" />
        </mxCell>
        <mxCell id="VLJKYC3LTIpCLGKi5_63-31" value="CarModel" style="swimlane;fontStyle=1;align=center;verticalAlign=top;childLayout=stackLayout;horizontal=1;startSize=26;horizontalStack=0;resizeParent=1;resizeParentMax=0;resizeLast=0;collapsible=1;marginBottom=0;whiteSpace=wrap;html=1;" vertex="1" parent="1">
          <mxGeometry x="20" y="580" width="440" height="130" as="geometry" />
        </mxCell>
        <mxCell id="VLJKYC3LTIpCLGKi5_63-32" value="+ IsConvertable: bool&amp;nbsp;&amp;lt;&amp;lt;get, set&amp;gt;&amp;gt;&lt;div&gt;+ TrunkSize: decimal&lt;span style=&quot;background-color: transparent; color: light-dark(rgb(0, 0, 0), rgb(255, 255, 255));&quot;&gt;&amp;nbsp;&lt;/span&gt;&lt;span style=&quot;background-color: transparent; color: light-dark(rgb(0, 0, 0), rgb(255, 255, 255));&quot;&gt;&amp;lt;&amp;lt;get, set&amp;gt;&amp;gt;&lt;/span&gt;&lt;/div&gt;" style="text;strokeColor=none;fillColor=none;align=left;verticalAlign=top;spacingLeft=4;spacingRight=4;overflow=hidden;rotatable=0;points=[[0,0.5],[1,0.5]];portConstraint=eastwest;whiteSpace=wrap;html=1;" vertex="1" parent="VLJKYC3LTIpCLGKi5_63-31">
          <mxGeometry y="26" width="440" height="34" as="geometry" />
        </mxCell>
        <mxCell id="VLJKYC3LTIpCLGKi5_63-33" value="" style="line;strokeWidth=1;fillColor=none;align=left;verticalAlign=middle;spacingTop=-1;spacingLeft=3;spacingRight=3;rotatable=0;labelPosition=right;points=[];portConstraint=eastwest;strokeColor=inherit;" vertex="1" parent="VLJKYC3LTIpCLGKi5_63-31">
          <mxGeometry y="60" width="440" height="8" as="geometry" />
        </mxCell>
        <mxCell id="VLJKYC3LTIpCLGKi5_63-34" value="+ CarModel()&lt;div&gt;+ CarModel(int, string, string, string, int, decimal, int, decimal, bool, decimal)&lt;/div&gt;&lt;div&gt;+ ToString(): string &amp;lt;&amp;lt;override&amp;gt;&amp;gt;&lt;/div&gt;" style="text;strokeColor=none;fillColor=none;align=left;verticalAlign=top;spacingLeft=4;spacingRight=4;overflow=hidden;rotatable=0;points=[[0,0.5],[1,0.5]];portConstraint=eastwest;whiteSpace=wrap;html=1;" vertex="1" parent="VLJKYC3LTIpCLGKi5_63-31">
          <mxGeometry y="68" width="440" height="62" as="geometry" />
        </mxCell>
        <mxCell id="VLJKYC3LTIpCLGKi5_63-39" value="PickupModel" style="swimlane;fontStyle=1;align=center;verticalAlign=top;childLayout=stackLayout;horizontal=1;startSize=26;horizontalStack=0;resizeParent=1;resizeParentMax=0;resizeLast=0;collapsible=1;marginBottom=0;whiteSpace=wrap;html=1;" vertex="1" parent="1">
          <mxGeometry x="340" y="920" width="440" height="130" as="geometry" />
        </mxCell>
        <mxCell id="VLJKYC3LTIpCLGKi5_63-40" value="+ HasBedCover: bool&amp;nbsp;&amp;lt;&amp;lt;get, set&amp;gt;&amp;gt;&lt;div&gt;+ BedSize: decimal&lt;span style=&quot;background-color: transparent; color: light-dark(rgb(0, 0, 0), rgb(255, 255, 255));&quot;&gt;&amp;nbsp;&lt;/span&gt;&lt;span style=&quot;background-color: transparent; color: light-dark(rgb(0, 0, 0), rgb(255, 255, 255));&quot;&gt;&amp;lt;&amp;lt;get, set&amp;gt;&amp;gt;&lt;/span&gt;&lt;/div&gt;" style="text;strokeColor=none;fillColor=none;align=left;verticalAlign=top;spacingLeft=4;spacingRight=4;overflow=hidden;rotatable=0;points=[[0,0.5],[1,0.5]];portConstraint=eastwest;whiteSpace=wrap;html=1;" vertex="1" parent="VLJKYC3LTIpCLGKi5_63-39">
          <mxGeometry y="26" width="440" height="34" as="geometry" />
        </mxCell>
        <mxCell id="VLJKYC3LTIpCLGKi5_63-41" value="" style="line;strokeWidth=1;fillColor=none;align=left;verticalAlign=middle;spacingTop=-1;spacingLeft=3;spacingRight=3;rotatable=0;labelPosition=right;points=[];portConstraint=eastwest;strokeColor=inherit;" vertex="1" parent="VLJKYC3LTIpCLGKi5_63-39">
          <mxGeometry y="60" width="440" height="8" as="geometry" />
        </mxCell>
        <mxCell id="VLJKYC3LTIpCLGKi5_63-42" value="+ PickupModel()&lt;div&gt;+ PickupModel(int, string, string, string, int, decimal, int, decimal, bool, decimal)&lt;/div&gt;&lt;div&gt;+ ToString(): string &amp;lt;&amp;lt;override&amp;gt;&amp;gt;&lt;/div&gt;" style="text;strokeColor=none;fillColor=none;align=left;verticalAlign=top;spacingLeft=4;spacingRight=4;overflow=hidden;rotatable=0;points=[[0,0.5],[1,0.5]];portConstraint=eastwest;whiteSpace=wrap;html=1;" vertex="1" parent="VLJKYC3LTIpCLGKi5_63-39">
          <mxGeometry y="68" width="440" height="62" as="geometry" />
        </mxCell>
        <mxCell id="VLJKYC3LTIpCLGKi5_63-51" style="edgeStyle=none;curved=1;rounded=0;orthogonalLoop=1;jettySize=auto;html=1;exitX=0.5;exitY=0;exitDx=0;exitDy=0;fontSize=12;startSize=8;endSize=8;entryX=0.53;entryY=1.044;entryDx=0;entryDy=0;entryPerimeter=0;" edge="1" parent="1" source="VLJKYC3LTIpCLGKi5_63-43" target="VLJKYC3LTIpCLGKi5_63-26">
          <mxGeometry relative="1" as="geometry" />
        </mxCell>
        <mxCell id="VLJKYC3LTIpCLGKi5_63-43" value="MotorcycleModel" style="swimlane;fontStyle=1;align=center;verticalAlign=top;childLayout=stackLayout;horizontal=1;startSize=26;horizontalStack=0;resizeParent=1;resizeParentMax=0;resizeLast=0;collapsible=1;marginBottom=0;whiteSpace=wrap;html=1;" vertex="1" parent="1">
          <mxGeometry x="205" y="750" width="460" height="130" as="geometry" />
        </mxCell>
        <mxCell id="VLJKYC3LTIpCLGKi5_63-44" value="+ HasSideCar: bool&amp;nbsp;&amp;lt;&amp;lt;get, set&amp;gt;&amp;gt;&lt;div&gt;+ SeatHeight: decimal&lt;span style=&quot;background-color: transparent; color: light-dark(rgb(0, 0, 0), rgb(255, 255, 255));&quot;&gt;&amp;nbsp;&lt;/span&gt;&lt;span style=&quot;background-color: transparent; color: light-dark(rgb(0, 0, 0), rgb(255, 255, 255));&quot;&gt;&amp;lt;&amp;lt;get, set&amp;gt;&amp;gt;&lt;/span&gt;&lt;/div&gt;" style="text;strokeColor=none;fillColor=none;align=left;verticalAlign=top;spacingLeft=4;spacingRight=4;overflow=hidden;rotatable=0;points=[[0,0.5],[1,0.5]];portConstraint=eastwest;whiteSpace=wrap;html=1;" vertex="1" parent="VLJKYC3LTIpCLGKi5_63-43">
          <mxGeometry y="26" width="460" height="34" as="geometry" />
        </mxCell>
        <mxCell id="VLJKYC3LTIpCLGKi5_63-45" value="" style="line;strokeWidth=1;fillColor=none;align=left;verticalAlign=middle;spacingTop=-1;spacingLeft=3;spacingRight=3;rotatable=0;labelPosition=right;points=[];portConstraint=eastwest;strokeColor=inherit;" vertex="1" parent="VLJKYC3LTIpCLGKi5_63-43">
          <mxGeometry y="60" width="460" height="8" as="geometry" />
        </mxCell>
        <mxCell id="VLJKYC3LTIpCLGKi5_63-46" value="+ MotorcycleModel()&lt;div&gt;+ MotorcycleModel(int, string, string, string, int, decimal, int, decimal, bool, decimal)&lt;/div&gt;&lt;div&gt;+ ToString(): string &amp;lt;&amp;lt;override&amp;gt;&amp;gt;&lt;/div&gt;" style="text;strokeColor=none;fillColor=none;align=left;verticalAlign=top;spacingLeft=4;spacingRight=4;overflow=hidden;rotatable=0;points=[[0,0.5],[1,0.5]];portConstraint=eastwest;whiteSpace=wrap;html=1;" vertex="1" parent="VLJKYC3LTIpCLGKi5_63-43">
          <mxGeometry y="68" width="460" height="62" as="geometry" />
        </mxCell>
        <mxCell id="VLJKYC3LTIpCLGKi5_63-50" style="edgeStyle=none;curved=1;rounded=0;orthogonalLoop=1;jettySize=auto;html=1;entryX=0.272;entryY=1.005;entryDx=0;entryDy=0;entryPerimeter=0;fontSize=12;startSize=8;endSize=8;" edge="1" parent="1" source="VLJKYC3LTIpCLGKi5_63-31" target="VLJKYC3LTIpCLGKi5_63-26">
          <mxGeometry relative="1" as="geometry" />
        </mxCell>
        <mxCell id="VLJKYC3LTIpCLGKi5_63-52" style="edgeStyle=none;curved=1;rounded=0;orthogonalLoop=1;jettySize=auto;html=1;exitX=0.75;exitY=0;exitDx=0;exitDy=0;entryX=0.837;entryY=0.966;entryDx=0;entryDy=0;entryPerimeter=0;fontSize=12;startSize=8;endSize=8;" edge="1" parent="1" source="VLJKYC3LTIpCLGKi5_63-39" target="VLJKYC3LTIpCLGKi5_63-26">
          <mxGeometry relative="1" as="geometry" />
        </mxCell>
        <mxCell id="VLJKYC3LTIpCLGKi5_63-53" value="" style="endArrow=block;startArrow=block;endFill=1;startFill=1;html=1;rounded=0;fontSize=12;startSize=8;endSize=8;curved=1;entryX=-0.015;entryY=0.265;entryDx=0;entryDy=0;entryPerimeter=0;exitX=1;exitY=0.5;exitDx=0;exitDy=0;" edge="1" parent="1" source="VLJKYC3LTIpCLGKi5_63-16" target="VLJKYC3LTIpCLGKi5_63-22">
          <mxGeometry width="160" relative="1" as="geometry">
            <mxPoint x="310" y="140" as="sourcePoint" />
            <mxPoint x="470" y="140" as="targetPoint" />
          </mxGeometry>
        </mxCell>
        <mxCell id="VLJKYC3LTIpCLGKi5_63-54" value="" style="endArrow=block;startArrow=block;endFill=1;startFill=1;html=1;rounded=0;fontSize=12;startSize=8;endSize=8;curved=1;exitX=0.995;exitY=0.331;exitDx=0;exitDy=0;exitPerimeter=0;entryX=0;entryY=0.5;entryDx=0;entryDy=0;" edge="1" parent="1" source="VLJKYC3LTIpCLGKi5_63-8" target="VLJKYC3LTIpCLGKi5_63-22">
          <mxGeometry width="160" relative="1" as="geometry">
            <mxPoint x="250" y="150" as="sourcePoint" />
            <mxPoint x="520" y="150" as="targetPoint" />
          </mxGeometry>
        </mxCell>
      </root>
    </mxGraphModel>
  </diagram>
</mxfile>
